# xmcd
#
# Track frame offsets:
# 150
# 14630
# 31440
# 45660
# 64240
# 78710
# 96380
# 112505
# 125490
# 143230
# 159407
# 175050
# 190775
# 206765
#
# Disc length: 2953 seconds
#
#
# Revision: 3
# Processed by: cddbd v1.5.1PL0 Copyright (c) Steve Scherf et al.
# Submitted via: FreeRIP 2.942 
#
DISCID=c00b870e
DTITLE=Diversos - Axé Bahia 97
DYEAR=1997
DGENRE=Axé
TTITLE0=A Dança do Bumbum - É o Tchan
TTITLE1=Menina Linda - Netinho
TTITLE2=Melô do Pirulito - Grupo Cafuné
TTITLE3=Vai Sacudir, Vai Abalar - Banda Cheiro de Amor
TTITLE4=Maré Mansa - Timbalada
TTITLE5=Beleza Rara - Banda Eva
TTITLE6=Vai Subir Poeira - Pimenta N' Ativa
TTITLE7=Vermelho - Márcia Freire
TTITLE8=Pra Te Ter Aqui - Jheremmias
TTITLE9=Sanduíche - Companhia do Pagode
TTITLE10=Só Não Posso Ficar Sem Você - Banda Pike
TTITLE11=Tic, Tic, Tac - Banda Eva
TTITLE12=Fiu Fiu Fiti Fiu - Curta Megragem
TTITLE13=Carimbó Dance - Banda Pinote
EXTD=
EXTT0=Gera Samba (  o Tchan)
EXTT1=Netinho
EXTT2=Grupo Cafun
EXTT3=Banda Cheiro De Amor
EXTT4=Timbalada
EXTT5=Banda Eva
EXTT6=Pimenta N'Ativa
EXTT7=Marcia Freire
EXTT8=Jheremmias N o Bate Corner
EXTT9=Companhia Do Pagode
EXTT10=Banda Pike
EXTT11=Banda Eva
EXTT12=Curta Metragem
EXTT13=Banda Pinote
PLAYORDER=
